<?xml version="1.0" encoding="UTF-8"?>
<svg version="1.1" xmlns="http://www.w3.org/2000/svg" width="512" height="512">
<path d="M0 0 C1.00039307 0.27287842 1.00039307 0.27287842 2.02099609 0.55126953 C34.78201389 9.68647484 62.50367565 32.19778809 80 61 C80.36222656 61.59119629 80.72445312 62.18239258 81.09765625 62.79150391 C98.59108713 91.86384314 103.25042878 128.56623096 95.37402344 161.39550781 C86.07503504 197.41271639 64.06413656 227.73463581 32.0234375 246.71875 C1.53753805 264.23099478 -34.67685194 269.57289013 -68.8125 260.75 C-85.63310915 256.11499535 -102.16172197 249.12823344 -115.8515625 238.15234375 C-117.9431727 236.80589891 -117.9431727 236.80589891 -120.37890625 237.0390625 C-123.79866943 238.29280578 -126.47806515 240.20662518 -129.3125 242.4375 C-129.88500488 242.88778564 -130.45750977 243.33807129 -131.04736328 243.80200195 C-142.83206153 253.34650989 -150.71331861 266.93820451 -153 282 C-154.58606602 300.88457974 -150.96902618 316.73559505 -139.74609375 332.08203125 C-130.06933883 343.48051522 -116.80167728 351.4554422 -102 354 C-100.03436401 354.09069913 -98.06606828 354.13079215 -96.09834385 354.13422108 C-94.31460482 354.14090784 -94.31460482 354.14090784 -92.49483067 354.14772969 C-91.19213118 354.14754533 -89.8894317 354.14736097 -88.54725647 354.14717102 C-87.14636093 354.15047182 -85.74546634 354.15419785 -84.34457296 354.1583125 C-80.49496018 354.16831628 -76.64536299 354.17204669 -72.79573905 354.17470181 C-68.64350275 354.17860975 -64.49127874 354.18818783 -60.33905029 354.19691467 C-50.31057731 354.21666651 -40.28210334 354.22674422 -30.25361577 354.23564246 C-25.52797277 354.24002795 -20.80233088 354.24539413 -16.07668877 354.25063133 C-0.36182036 354.26764326 15.35304735 354.28213623 31.06792355 354.28938007 C35.14497313 354.29128989 39.2220227 354.29321023 43.29907227 354.29516602 C44.81902194 354.29589163 44.81902194 354.29589163 46.36967767 354.2966319 C62.77521425 354.30492772 79.18067781 354.33025724 95.58618253 354.36274669 C112.43941483 354.39584995 129.29261006 354.41383184 146.14587504 354.41702431 C155.60422803 354.41918652 165.06247457 354.42789256 174.52079582 354.45348549 C182.57804781 354.47523723 190.63516749 354.483221 198.69244551 354.47351871 C202.79953354 354.46898677 206.90634884 354.47079524 211.01339912 354.49028015 C214.78216482 354.50800477 218.55046072 354.50683978 222.31923205 354.49138286 C224.30988948 354.48791199 226.30055237 354.50396343 228.29114002 354.52098733 C247.37075676 354.38597478 263.34903295 346.92009458 277.1171875 334.015625 C290.33953885 320.33023411 295.65671479 302.36114714 295.47314453 283.70874023 C294.84120251 264.97763704 286.33205587 248.70788816 272.875 235.875 C258.65879494 223.80832422 242.04815934 218.41155804 223.54492188 219.30273438 C219.48492684 219.39462026 217.53034374 219.33397135 214.00390625 217.11328125 C210.46587336 213.38213936 210.94871483 210.9310194 211.0625 205.875 C211.27534979 177.28217857 201.26995257 152.15701274 181.56640625 131.44140625 C166.6505199 117.30927747 147.53614322 108.43420354 127.375 105 C124.41813575 104.43099816 122.96100728 103.97493325 120.375 102.3125 C118.37489593 98.94868861 118.3931217 96.84356257 119 93 C120.8125 90 120.8125 90 124 88 C144.46539169 85.97828886 169.33078516 100.17663787 184.625 112.3125 C207.86041736 132.07440795 222.97454234 157.39374258 227 188 C227.27781846 192.66870528 227.19433157 197.32884474 227 202 C227.63164062 201.96519531 228.26328125 201.93039063 228.9140625 201.89453125 C248.68901307 201.29615378 268.69818733 209.0532412 283.25 222.375 C285.19879676 224.22131073 287.09974177 226.102441 289 228 C289.7425 228.73089844 290.485 229.46179688 291.25 230.21484375 C307.96994846 247.75119594 312.68797913 270.12553833 312.3046875 293.5625 C311.55065798 314.99937244 300.92684342 335.09252165 285.5234375 349.8125 C278.29813699 356.0759184 270.70259009 360.97278598 262 364.875 C261.39663818 365.14908691 260.79327637 365.42317383 260.17163086 365.70556641 C246.9130048 371.31545389 233.95876501 371.40908313 219.82421875 371.29296875 C217.80255958 371.28736211 215.7808963 371.28309707 213.75923157 371.28010559 C208.48044252 371.26874089 203.20190756 371.2393473 197.92321777 371.20599365 C191.5670522 371.16966517 185.21080089 371.15609168 178.85456085 371.13863373 C169.23619807 371.10970382 159.61839101 371.05215838 150 371 C150 389.15 150 407.3 150 426 C155.94 425.67 161.88 425.34 168 425 C169.32 422.36 170.64 419.72 172 417 C176.78493413 411.42579839 182.6169176 407.39897288 190.046875 406.72265625 C199.36886044 406.45416589 206.43027118 407.70227015 213.39453125 414.140625 C218.49283608 420.04523108 221.21983093 427.20974149 221 435 C220.41106938 442.05489804 217.69586965 447.71962337 213 453 C204.7217776 459.73841653 197.59365313 460.97543273 187 460 C179.76423819 457.91313608 173.972347 453.41406488 170 447 C169.31640625 444.25 169.31640625 444.25 169 442 C168.43603516 442.01047363 167.87207031 442.02094727 167.29101562 442.03173828 C164.69405719 442.07374478 162.09717061 442.09946602 159.5 442.125 C158.613125 442.14175781 157.72625 442.15851563 156.8125 442.17578125 C143.82304448 442.27129195 143.82304448 442.27129195 138.94140625 438.34375 C138.48636719 437.7353125 138.03132813 437.126875 137.5625 436.5 C137.08941406 435.8915625 136.61632812 435.283125 136.12890625 434.65625 C133.89100486 431.37296214 133.87819632 429.22216089 133.88647461 425.26513672 C133.88659546 424.04721436 133.88671631 422.82929199 133.88684082 421.57446289 C133.89195679 420.28918701 133.89707275 419.00391113 133.90234375 417.6796875 C133.90335083 416.50220947 133.90435791 415.32473145 133.90539551 414.11157227 C133.91064036 409.69937165 133.92460154 405.28718488 133.9375 400.875 C133.958125 391.01625 133.97875 381.1575 134 371 C112.55 371 91.1 371 69 371 C69 389.15 69 407.3 69 426 C70.65 426.33 72.3 426.66 74 427 C80.27321304 430.58636202 84.20646433 435.1438983 87.25 441.6875 C89.53995571 451.80147107 87.67647464 460.09138005 82.25 468.8125 C76.32272424 474.57512921 69.64231227 477.93391142 61.33203125 478.03125 C52.53064133 477.54565607 46.83929442 475.20575571 40.6875 468.875 C35.46344014 462.58144757 33.63524672 456.51529939 34.0625 448.375 C35.28987194 439.37849023 38.96870963 434.53389457 45.68359375 428.56640625 C48 427 48 427 53 426 C53 407.85 53 389.7 53 371 C38.15 371 23.3 371 8 371 C8.04640625 375.26164062 8.0928125 379.52328125 8.140625 383.9140625 C8.16636642 387.3217268 8.1880513 390.72936347 8.20700073 394.1370697 C8.22808444 397.72911228 8.25623719 401.32077457 8.30175781 404.91259766 C8.34536192 408.3750419 8.36916743 411.83711841 8.37950897 415.29981613 C8.39044821 417.25742482 8.42165128 419.21488648 8.45318604 421.17227173 C8.45596088 432.20087892 8.45596088 432.20087892 4 437 C-2.13613251 442.97465534 -9.32049729 442.13718512 -17.375 442.0625 C-18.30183594 442.05798828 -19.22867188 442.05347656 -20.18359375 442.04882812 C-22.45579709 442.03711574 -24.72786388 442.02071372 -27 442 C-27.26683594 442.90492188 -27.53367188 443.80984375 -27.80859375 444.7421875 C-30.03511756 450.8304526 -34.31502985 455.47614444 -40.0625 458.5 C-47.0016514 461.14066683 -54.82845465 461.26546208 -61.91015625 459.1171875 C-68.99114123 455.89176146 -73.17531596 451.39768751 -76.8125 444.625 C-79.54758163 436.27580344 -79.77426281 428.65162323 -75.84375 420.64453125 C-72.13566763 414.49529465 -67.03084114 409.68387658 -60.109375 407.3671875 C-51.91776592 405.94124073 -44.43382616 406.26306906 -37.15625 410.4453125 C-31.58879869 414.45952559 -29.06937934 418.86124133 -26 425 C-20.06 425.33 -14.12 425.66 -8 426 C-8 407.85 -8 389.7 -8 371 C-14.75597656 371.04640625 -21.51195312 371.0928125 -28.47265625 371.140625 C-32.77931246 371.16108816 -37.08590784 371.18034572 -41.39257812 371.1953125 C-48.21277477 371.21912765 -55.03275449 371.24715331 -61.8527832 371.30175781 C-67.35766906 371.34555159 -72.86232194 371.3692073 -78.3673687 371.37950897 C-80.45669656 371.3868406 -82.54601319 371.40115563 -84.63524055 371.42292023 C-99.88930485 371.57535952 -113.55899924 370.5417267 -127.3125 363.25 C-127.97636719 362.90710938 -128.64023438 362.56421875 -129.32421875 362.2109375 C-135.11882702 359.1219829 -140.15242844 355.43557181 -145 351 C-146.02287109 350.11441406 -146.02287109 350.11441406 -147.06640625 349.2109375 C-159.64471382 337.64184834 -168.88234725 319.26095077 -170.21948242 302.19946289 C-171.12968798 278.8718675 -167.57392404 259.16957804 -152 241 C-151.55398437 240.41089844 -151.10796875 239.82179688 -150.6484375 239.21484375 C-146.12337848 233.40636156 -140.110213 229.03383822 -134 225 C-133.34 225 -132.68 225 -132 225 C-132.4125 224.53851563 -132.825 224.07703125 -133.25 223.6015625 C-135.18481779 221.41625491 -137.09573666 219.2119865 -139 217 C-139.63679688 216.26394531 -140.27359375 215.52789062 -140.9296875 214.76953125 C-153.38879577 199.8336123 -162.23641258 181.83381322 -167 163 C-167.2990625 161.85789063 -167.598125 160.71578125 -167.90625 159.5390625 C-172.48456945 138.63988203 -171.84922219 114.54677476 -166 94 C-165.72712158 92.99960693 -165.72712158 92.99960693 -165.44873047 91.97900391 C-160.28085197 73.44576314 -150.36933485 56.6119993 -138 42 C-137.30003906 41.1646875 -136.60007813 40.329375 -135.87890625 39.46875 C-103.26250732 1.79419295 -47.65230238 -13.56557941 0 0 Z M-52.625 22.5 C-58.93735566 32.23948147 -67 45.15603179 -67 57 C-60.38529703 57.76803756 -53.87980556 58.14899789 -47.22265625 58.1328125 C-46.33066025 58.13376923 -45.43866425 58.13472595 -44.51963806 58.13571167 C-42.64826384 58.13638689 -40.77688719 58.13457896 -38.90551758 58.13037109 C-36.0730248 58.12501988 -33.24069102 58.1303354 -30.40820312 58.13671875 C-21.56318853 58.13963607 -12.78991708 58.13110761 -4 57 C-8.74368574 41.31349374 -14.26237677 23.06613919 -28.47265625 13.30078125 C-38.22697065 8.28039996 -46.81647725 14.64293575 -52.625 22.5 Z M-5 16 C-4.50371094 16.86238281 -4.00742188 17.72476563 -3.49609375 18.61328125 C1.82992341 28.10198048 5.73743363 37.78183737 9.30761719 48.04785156 C10.13935716 50.39291251 11.04896935 52.70090648 12 55 C23.9418018 53.14070681 35.4127369 50.42874569 47 47 C34.79614045 31.92304668 14.52989884 18.56815184 -5 16 Z M-116.4609375 43.23828125 C-118.21930444 44.8611464 -118.21930444 44.8611464 -118 47 C-101.19386223 51.88291456 -101.19386223 51.88291456 -84 55 C-83.58492187 53.88367188 -83.16984375 52.76734375 -82.7421875 51.6171875 C-73.57002301 27.17600357 -73.57002301 27.17600357 -68 17 C-84.95085756 17 -104.53995843 32.39586695 -116.4609375 43.23828125 Z M-130 59 C-143.77529531 77.33517315 -154 99.73533712 -154 123 C-133.54 123 -113.08 123 -92 123 C-91.34 113.43 -90.68 103.86 -90 94 C-88.11383929 78.54799107 -88.11383929 78.54799107 -87 71 C-87.76965088 70.8141333 -88.53930176 70.6282666 -89.33227539 70.43676758 C-117.58140026 63.58305467 -117.58140026 63.58305467 -130 59 Z M48.1875 61.6875 C37.65946043 65.3398172 26.89329324 67.71458646 16 70 C16.10957031 70.90492187 16.21914062 71.80984375 16.33203125 72.7421875 C18.25549655 89.12680263 19.57656144 105.56575482 21 122 C41.13 122 61.26 122 82 122 C82 115.72261033 81.8469908 110.83887703 80.375 104.9375 C80.10659302 103.84514038 80.10659302 103.84514038 79.83276367 102.73071289 C75.95970742 87.59622694 69.86494937 70.59667045 59 59 C55.0708066 59 51.84110621 60.38449869 48.1875 61.6875 Z M-72 73 C-73.87044011 83.57422143 -75.3095587 94.10653922 -76.1875 104.8125 C-76.27112793 105.83150391 -76.35475586 106.85050781 -76.44091797 107.90039062 C-76.80789321 112.63871179 -77 117.2338854 -77 122 C-49.94 122 -22.88 122 5 122 C5 112.63111433 4.76630169 103.9002189 3.625 94.6875 C3.49867188 93.58599609 3.37234375 92.48449219 3.2421875 91.34960938 C2.49954223 85.12252879 1.47717581 79.09495583 0 73 C-0.84087158 73.04543945 -0.84087158 73.04543945 -1.69873047 73.09179688 C-25.17768229 74.32428778 -48.52397401 74.26860963 -72 73 Z M-154 138 C-153.10462088 148.79874509 -153.10462088 148.79874509 -150.875 159.1875 C-150.65545654 159.99356689 -150.43591309 160.79963379 -150.2097168 161.63012695 C-146.00407377 176.49607856 -139.57044718 189.18744013 -131 202 C-130.30140869 201.77860352 -129.60281738 201.55720703 -128.88305664 201.32910156 C-115.35257818 197.05783941 -101.88764506 192.94000285 -88 190 C-88.12117188 188.93007812 -88.24234375 187.86015625 -88.3671875 186.7578125 C-89.57568807 175.81923933 -90.51690271 164.87613891 -91.30224609 153.89892578 C-91.37910645 152.84431152 -91.4559668 151.78969727 -91.53515625 150.703125 C-91.600979 149.77145508 -91.66680176 148.83978516 -91.73461914 147.87988281 C-92.03928393 144.57369522 -92.53045347 141.28682568 -93 138 C-113.13 138 -133.26 138 -154 138 Z M-77 138 C-77.06542411 147.43913823 -77.06542411 147.43913823 -76.4140625 156.69140625 C-76.28773437 157.82126953 -76.16140625 158.95113281 -76.03125 160.11523438 C-75.8971875 161.25283203 -75.763125 162.39042969 -75.625 163.5625 C-75.49867187 164.70396484 -75.37234375 165.84542969 -75.2421875 167.02148438 C-74.43650442 174.07523971 -73.37017643 181.03391047 -72 188 C-71.2587085 187.9285376 -70.51741699 187.8570752 -69.75366211 187.78344727 C-55.71146445 186.63359986 -41.64089799 186.89141544 -27.5625 186.9375 C-24.88476647 186.94309992 -22.2070335 186.94708572 -19.52929688 186.95117188 C-13.01951111 186.96210344 -6.50975989 186.9787664 0 187 C1.79832976 177.35175005 3.43443792 167.79671589 4.1875 158 C4.26935547 157.05511719 4.35121094 156.11023438 4.43554688 155.13671875 C4.91062276 149.3639479 5 143.83922558 5 138 C-22.06 138 -49.12 138 -77 138 Z M21 138 C20.34 147.24 19.68 156.48 19 166 C17.375 177.5 17.375 177.5 16.5859375 182.21875 C15.89791262 186.02107413 15.89791262 186.02107413 16 190 C16.76965088 190.1858667 17.53930176 190.3717334 18.33227539 190.56323242 C46.58140026 197.41694533 46.58140026 197.41694533 59 202 C72.0699045 182.76560539 82 161.65822952 82 138 C61.87 138 41.74 138 21 138 Z M-67 203 C-65.35900416 218.05855008 -57.11621992 234.71910296 -46 245 C-41.73272914 247.99254298 -38.69027483 248.65161958 -33.5546875 248.46875 C-26.6514423 247.2020995 -21.80265219 241.29819298 -17.796875 235.88671875 C-12.03717502 226.63363552 -5 214.03342754 -5 203 C-14.34355633 201.98682939 -23.61435398 201.84508331 -32.99926758 201.86962891 C-35.42991391 201.87498329 -37.86037491 201.86965509 -40.29101562 201.86328125 C-49.24746635 201.85986471 -58.07912288 202.1272947 -67 203 Z M13 205 C12.37544922 206.67642578 12.37544922 206.67642578 11.73828125 208.38671875 C2.23318503 233.70580048 2.23318503 233.70580048 -4 244 C14.71424528 240.04121735 34.17299899 229.39509404 47 215 C47 214.34 47 213.68 47 213 C35.74235596 209.70349081 24.57145252 206.93908537 13 205 Z M-90.97265625 206.890625 C-91.95556641 207.10589844 -92.93847656 207.32117188 -93.95117188 207.54296875 C-94.97791016 207.77628906 -96.00464844 208.00960937 -97.0625 208.25 C-98.56200195 208.57677734 -98.56200195 208.57677734 -100.09179688 208.91015625 C-106.4886794 210.3316857 -112.75292697 212.02260856 -119 214 C-108.46968896 228.24689141 -87.94905597 239.49495353 -71 244 C-70.01 244 -69.02 244 -68 244 C-69.47257278 240.09479473 -71.29536534 236.49725046 -73.25 232.8125 C-76.60299479 226.3647721 -78.9108626 219.74379956 -80.95800781 212.77856445 C-81.55460074 210.82470129 -82.26818635 208.9073419 -83 207 C-86.35972191 205.8800927 -87.58172289 206.14044858 -90.97265625 206.890625 Z M-60 426 C-62.66836411 430.00254616 -62.8340238 433.29313299 -62 438 C-59.81840855 440.75569447 -58.12822506 442.43588747 -55 444 C-50.5811917 444.5098625 -48.49228099 444.29172207 -44.625 442 C-41.78555004 438.75491433 -41.04908605 437.11614982 -40.828125 432.92578125 C-41.17434494 429.04654417 -43.14226963 426.8883636 -45.75 424.1875 C-50.87998474 421.48000806 -55.5710988 422.58341907 -60 426 Z M184 428 C182.56935327 431.96425016 182.54949067 434.93300423 184.1875 438.8125 C187.16961328 442.41160223 188.66300293 443.85414577 193.4375 444.375 C197.20656993 443.9782558 199.02618388 443.29408672 202 441 C204.66836411 436.99745384 204.8340238 433.70686701 204 429 C201.81840855 426.24430553 200.12822506 424.56411253 197 423 C190.92070959 422.29854341 188.04963764 423.37184269 184 428 Z M53 444 C50.83020535 447.70964892 49.8145093 449.84068315 50.5 454.125 C52.31718363 457.60793529 53.82432276 459.6527603 57 462 C62.12357718 462.81326622 63.94310503 462.61492071 68.4375 460 C71.17751067 456.79218264 72.00880732 455.11136431 72.2421875 450.99609375 C71.82987 447.59779949 70.17991919 445.54323905 68 443 C62.90900478 439.60600318 57.64376861 440.00119925 53 444 Z " fill="#000000" transform="translate(185,19)"/>
<path d="M0 0 C4.89412731 2.97218461 8.28658742 7.06582996 10.875 12.125 C12.25702399 19.44972714 12.799633 27.01139856 8.89453125 33.62109375 C4.5165088 39.32355996 -0.26731471 43.27510415 -7.5 44.4375 C-14.23076178 45.09954214 -19.59462887 43.80069294 -25.5 40.4375 C-30.59421089 36.12290629 -33.92773895 30.56413799 -34.8515625 23.90234375 C-35.23211567 16.78199358 -33.72563309 11.21994528 -29.5 5.4375 C-21.67316706 -2.05433231 -10.22325931 -4.64513142 0 0 Z M-16.9375 16.5625 C-18.74870485 19.34975693 -18.74870485 19.34975693 -18.5 22.5625 C-17.6925204 25.45939293 -17.6925204 25.45939293 -15.8125 27.375 C-12.62702876 28.83859489 -10.82118677 28.42678968 -7.5 27.4375 C-5.51970318 26.37404948 -5.51970318 26.37404948 -4.5 24.4375 C-3.95931438 20.80718224 -4.03620159 19.11535921 -6.125 16.0625 C-8.44844013 14.23862622 -8.44844013 14.23862622 -11.5 13.875 C-14.64627033 14.20253002 -14.64627033 14.20253002 -16.9375 16.5625 Z " fill="#000000" transform="translate(355.5,293.5625)"/>
<path d="M0 0 C5.18135016 3.13549516 8.30959727 8.01097611 10.875 13.375 C12.48983403 21.44917013 12.06610713 28.46900317 7.5 35.5 C2.37776536 41.43919865 -3.72960972 44.14091521 -11.4375 44.875 C-18.0071886 44.55295644 -23.53095071 42.78810933 -28.375 38.25 C-33.85971587 32.12900619 -35.01623117 26.42466949 -34.78515625 18.3671875 C-34.13249913 11.80485431 -31.16192793 7.16192793 -26.5 2.5 C-19.33034175 -3.12087285 -8.24093428 -3.54994092 0 0 Z M-16.875 16.125 C-18.69887378 18.44844013 -18.69887378 18.44844013 -19.0625 21.5 C-18.73496998 24.64627033 -18.73496998 24.64627033 -16.375 26.9375 C-13.58774307 28.74870485 -13.58774307 28.74870485 -10.375 28.5 C-7.47810707 27.6925204 -7.47810707 27.6925204 -5.5625 25.8125 C-4.09890511 22.62702876 -4.51071032 20.82118677 -5.5 17.5 C-6.56345052 15.51970318 -6.56345052 15.51970318 -8.5 14.5 C-12.13031776 13.95931438 -13.82214079 14.03620159 -16.875 16.125 Z " fill="#000000" transform="translate(423.5,293.5)"/>
<path d="M0 0 C5.62266666 3.35220295 9.56272906 8.22199572 11.5625 14.4375 C12.62241906 22.78436262 12.15934699 29.45986144 7.26953125 36.4453125 C2.25239134 42.30055588 -3.76899151 44.0766631 -11.25 44.8125 C-17.90847904 44.59270555 -24.2908102 42.14131914 -28.875 37.25 C-33.22998029 31.48859548 -35.31988136 24.6226054 -34.4375 17.4375 C-32.47574952 9.8249211 -29.03974147 4.76522625 -22.4375 0.4375 C-15.75225938 -2.86084719 -6.83513272 -3.0744902 0 0 Z M-16.875 16.5625 C-18.67534957 19.34995748 -18.67534957 19.34995748 -18.5 22.5625 C-17.65305177 25.56835299 -17.65305177 25.56835299 -15.1875 27.375 C-11.98833641 28.61104048 -10.63287581 28.61474372 -7.4375 27.4375 C-5.52083333 26.35416667 -5.52083333 26.35416667 -4.4375 24.4375 C-3.89681438 20.80718224 -3.97370159 19.11535921 -6.0625 16.0625 C-8.38594013 14.23862622 -8.38594013 14.23862622 -11.4375 13.875 C-14.58377033 14.20253002 -14.58377033 14.20253002 -16.875 16.5625 Z " fill="#000000" transform="translate(287.4375,293.5625)"/>
<path d="M0 0 C0.66 -0.02191406 1.32 -0.04382813 2 -0.06640625 C5.17810903 0.93296007 6.24840668 2.80080859 8 5.5625 C8.65234375 8.54296875 8.65234375 8.54296875 8.9375 11.75 C10.18838319 21.21180874 13.34285136 28.1166809 20.9140625 34.09765625 C27.44472202 38.68379355 32.96241133 40.10979689 40.94921875 40.875 C44.59873318 41.69742579 46.39430074 42.89974164 49 45.5625 C49.62890625 47.5625 49.62890625 47.5625 49.5625 49.5625 C49.56443359 50.5525 49.56443359 50.5525 49.56640625 51.5625 C48.73740952 54.48971605 47.38841033 55.71654218 45 57.5625 C33.82229026 59.88336798 21.56322858 55.27002258 12.27734375 49.25 C1.63801945 41.36631544 -5.16050881 30.49973234 -8 17.5625 C-9.23962223 6.19086341 -9.23962223 6.19086341 -6.21875 2.22265625 C-3.8838782 0.47561309 -2.86965514 -0.0056048 0 0 Z " fill="#000000" transform="translate(59,297.4375)"/>
</svg>
